<svg xmlns="http://www.w3.org/2000/svg" viewBox="0 0 700 700"><g id="filmstrip"><path d="M626.78569,555.19421h-77.9671a302.67066,302.67066,0,0,0,81.89463-207.39048c0-167.791-136.02242-303.81376-303.81453-303.81376-82.9893.00039-164.692,35.39479-221.4993,95.92469C-.70123,252.968-1.98173,437.39589,102.70571,552.694c122.63586,135.06538,332.34072,98.92386,496.59454,98.92386h27.48544a48.21183,48.21183,0,1,0,0-96.42366ZM72.6654,299.52021a71.84448,71.84448,0,1,1,71.84448,71.84716A71.84523,71.84523,0,0,1,72.6654,299.52021Zm76.26869,205.47146a71.84448,71.84448,0,1,1,71.84448,71.84678A71.845,71.845,0,0,1,148.93409,504.99167ZM295.18252,223.54938a70.27679,70.27679,0,0,1-19.47246-14.08627c-18.564-18.897-25.29456-48.54428-16.7092-73.60483,25.70558-75.03522,139.74232-55.47367,139.74308,23.27152C398.74471,213.44226,339.74651,245.1829,295.18252,223.54938ZM437.21629,572.60045a71.84583,71.84583,0,1,1,71.84945-71.84678A71.84523,71.84523,0,0,1,437.21629,572.60045Zm0-273.08024a71.847,71.847,0,1,1,71.84945,71.84716A71.85093,71.85093,0,0,1,437.21629,299.52021Z" style="fill:#fff"/></g></svg>